<svg width="58" height="60" viewBox="0 0 58 60" fill="none" xmlns="http://www.w3.org/2000/svg">
<mask id="mask0_241_982" style="mask-type:alpha" maskUnits="userSpaceOnUse" x="0" y="0" width="58" height="60">
<path d="M14.2933 8.2467C14.0679 8.62323 14.3711 8.98621 14.7207 8.97882C14.9734 8.97368 15.2349 9.0084 15.495 9.08749C15.7548 9.16678 15.9911 9.28387 16.1979 9.42931C16.4839 9.63021 16.9383 9.49853 16.9615 9.06016C17.003 8.26867 16.6373 7.57558 16.0139 7.38577C15.3906 7.19555 14.7 7.56634 14.2933 8.2467Z" fill="#999999"/>
<path d="M40.4556 9.66637C40.6918 9.57619 40.9498 9.52051 41.221 9.50757C41.4925 9.49442 41.7546 9.52504 41.9983 9.592C42.3354 9.68485 42.7187 9.40774 42.5921 8.98724C42.365 8.22821 41.7865 7.69904 41.1355 7.73047C40.4847 7.76169 39.9601 8.34365 39.8062 9.12138C39.721 9.55194 40.1289 9.79106 40.4556 9.66637Z" fill="#999999"/>
<path d="M50.3862 40.0491C50.7627 39.4624 50.9546 38.7841 50.9546 38.1087C50.9546 36.1738 49.4488 34.4224 46.796 34.2445C46.7586 34.2348 46.7202 34.2274 46.6814 34.2231C43.1344 30.5855 41.5078 21.7748 42.4725 16.4806C45.7001 16.2288 47.9702 14.3327 48.8182 11.0957C49.1929 9.66452 48.5281 8.56182 47.152 8.29991C46.477 8.17152 46.0288 7.77095 45.781 7.0756C45.773 7.05341 45.7644 7.03163 45.7547 7.01027C44.453 4.1243 42.1989 3.76687 40.7046 3.63458C40.7046 3.62903 40.7102 3.61753 40.7046 3.61773C40.1644 3.64896 39.4947 3.64669 39.8523 3.25003C40.8063 2.1921 40.9737 1.69231 41.0838 1.30756C41.3264 0.457729 40.4249 -0.0973193 39.7494 0.0142246C36.0389 0.626794 32.4013 3.94106 30.4789 8.43425C30.2277 9.02155 29.8004 10.0289 29.2661 11.3225C28.5874 9.69267 27.2058 5.76521 23.2241 3.69702C21.4704 2.78577 19.7467 2.49962 17.9454 2.61137C16.4419 2.70298 13.3162 2.89259 11.6309 6.6705C11.5793 6.72165 11.1693 7.06923 9.39488 7.25924C8.30614 7.37613 7.2967 7.36647 7.28643 7.36626C7.28315 7.36626 7.27986 7.36626 7.27636 7.36626C6.80513 7.36626 6.41996 7.74547 6.4138 8.21794C6.35073 13.1136 8.55758 15.246 10.2129 16.1556C10.2149 16.1569 10.217 16.1585 10.2192 16.1598C11.2159 16.76 12.4752 16.9013 13.6434 16.9013C14.2771 16.9013 14.854 16.8602 15.2839 16.8171C15.6079 18.8635 16.2108 27.1418 12.1122 34.2467C9.48156 34.4421 8.00047 36.1935 8.00047 38.1087C8.00047 38.7841 8.19234 39.4624 8.56888 40.0491C8.56888 40.0491 9.49882 41.7742 12.3382 41.7742C12.8338 41.7742 20.5293 41.7742 21.6088 41.7742C22.0852 41.7742 22.4716 41.388 22.4716 40.9114C22.4716 40.4353 22.0852 40.0491 21.6088 40.0491C20.5347 40.0491 12.9974 40.0491 12.0534 40.0491C10.4456 40.0491 9.72581 39.0741 9.72581 38.1087C9.72581 36.8792 10.7996 36.0113 12.4507 35.9593C13.2079 36.1274 14.1249 36.5569 14.5017 37.6308C14.6596 38.0813 15.1526 38.3167 15.6015 38.1594C16.051 38.0016 16.2876 37.5094 16.1298 37.0596C15.7412 35.9515 14.9591 35.1157 13.8784 34.6241C17.719 27.6093 17.4285 19.5256 17.0099 16.7584C16.9322 16.2475 16.7319 15.6068 16.6921 15.5176C16.536 15.1667 16.1576 14.9543 15.7654 15.019C15.0154 15.1417 12.9743 15.3564 11.5608 14.8824C11.5198 14.8685 11.4801 14.8541 11.4417 14.8395C9.89549 14.1657 8.87249 12.8412 8.4144 10.9515C8.97438 10.8245 9.7858 10.3679 10.3137 8.87735C11.9419 8.61934 12.8659 8.14194 13.1991 7.39071C13.9947 5.59512 15.1286 4.86567 16.3815 4.55343C17.0296 4.39197 18.6995 4.16579 20.1191 5.11649C20.5166 5.3823 20.8363 5.8178 21.0283 6.37408C21.3494 7.30259 21.1173 8.34038 20.3749 9.29579C18.4509 11.7722 17.9653 13.0355 18.1428 14.6785C18.2547 15.7142 18.8192 16.5634 19.7323 17.0696C20.9866 17.7651 22.6296 17.7883 23.8831 17.0145C25.2329 16.1813 26.0149 14.6982 26.3939 12.198C26.3948 12.1933 26.396 12.189 26.3968 12.1842C26.069 11.3453 25.5492 10.1925 24.9102 9.38946C24.9599 10.086 25.0607 10.9646 24.8557 11.8946C24.4432 13.7617 24.1815 14.6982 23.1318 15.4611C22.3198 16.0511 21.2463 15.9363 20.5692 15.5607C20.1487 15.3276 19.9098 14.9681 19.8584 14.4932C19.7623 13.6047 19.8617 12.7684 21.7374 10.3543C22.9192 8.83339 23.2935 6.90448 22.3938 5.20277C22.6099 5.31328 22.8594 5.45893 23.094 5.62861V5.62819C23.094 5.62819 24.2972 6.39031 25.5562 8.01211C25.9213 8.48232 27.201 10.1688 28.3411 13.591C25.7323 20.0695 21.9168 30.2513 21.9168 34.387C21.9168 38.4605 25.2306 41.7742 29.3041 41.7742C33.3774 41.7742 36.6915 38.4605 36.6915 34.387C36.6915 32.1479 35.3573 27.3725 32.7263 20.193C32.1248 18.5525 31.5149 16.9498 30.943 15.4874L30.0665 17.9821C32.3711 24.0245 34.9656 31.5684 34.9656 34.387C34.9656 37.509 32.4259 40.0491 29.3041 40.0491C26.1821 40.0491 23.6423 37.509 23.6423 34.387C23.6423 30.0157 28.5492 17.6862 30.2002 13.6103C30.1998 13.6094 30.1992 13.6086 30.199 13.6078C31.1201 11.3336 31.8339 9.65385 32.0654 9.11297C33.2887 6.25288 35.7616 3.16375 38.7739 2.05468C36.5229 4.21058 37.3289 5.33957 38.1527 5.33957C39.2652 5.33957 39.49 5.33957 40.3832 5.33957C41.7698 5.45379 43.2174 5.6097 44.1683 7.69063C44.5419 8.71034 45.2416 9.44267 46.174 9.80688C45.9723 10.3132 45.8166 11.1816 46.8188 11.6349C46.0598 13.4268 44.3967 15.0967 40.794 14.7366C40.3182 14.6885 39.8971 15.0353 39.8501 15.5094C39.8026 15.9837 40.1486 16.4063 40.6227 16.4535C40.6572 16.457 40.6911 16.4589 40.7256 16.4621C40.2811 19.2142 40.4425 22.816 41.1765 26.2499C41.9394 29.8184 43.2303 32.7874 44.8634 34.7755C43.939 35.2792 43.2656 36.0577 42.9142 37.0596C42.7163 37.623 43.1372 38.2081 43.728 38.2081C44.084 38.2081 44.4174 37.986 44.5423 37.6308C44.917 36.5622 45.8262 36.1321 46.5813 35.962C50.1481 36.1294 49.9938 40.0491 46.9016 40.0491C45.4618 40.0491 38.4154 40.0491 37.0075 40.0491C36.5311 40.0491 36.1449 40.4353 36.1449 40.9114C36.1449 41.388 36.5311 41.7742 37.0075 41.7742C38.4166 41.7742 44.1728 41.7742 46.9016 41.7742C49.6302 41.7742 50.3862 40.0491 50.3862 40.0491Z" fill="#999999"/>
<path d="M6.14899 54.1912H4.59229V50.9532H1.55671V54.1912H0V46.636H1.55671V49.6975H4.59229V46.636H6.14899V54.1912Z" fill="#999999"/>
<path d="M13.7198 50.5848C13.7198 51.3286 13.5883 51.9807 13.3254 52.5411C13.0625 53.1015 12.6854 53.5339 12.1942 53.8383C11.7064 54.1428 11.146 54.295 10.513 54.295C9.88682 54.295 9.32814 54.1445 8.83691 53.8435C8.34568 53.5426 7.96515 53.1136 7.69532 52.5566C7.42549 51.9962 7.28885 51.3528 7.28539 50.6263V50.2527C7.28539 49.509 7.41857 48.8551 7.68494 48.2913C7.95477 47.7239 8.33357 47.2898 8.82134 46.9888C9.31257 46.6844 9.87298 46.5322 10.5026 46.5322C11.1322 46.5322 11.6909 46.6844 12.1786 46.9888C12.6699 47.2898 13.0487 47.7239 13.315 48.2913C13.5849 48.8551 13.7198 49.5072 13.7198 50.2475V50.5848ZM12.1423 50.2423C12.1423 49.4501 12.0005 48.8482 11.7168 48.4366C11.4331 48.0249 11.0284 47.8191 10.5026 47.8191C9.98022 47.8191 9.57721 48.0232 9.29354 48.4314C9.00988 48.8361 8.86631 49.4311 8.86285 50.2164V50.5848C8.86285 51.3563 9.00469 51.9547 9.28835 52.3802C9.57202 52.8057 9.98022 53.0185 10.513 53.0185C11.0353 53.0185 11.4366 52.8144 11.7168 52.4062C11.997 51.9945 12.1389 51.396 12.1423 50.6108V50.2423Z" fill="#999999"/>
<path d="M16.8851 46.636L18.8258 52.1156L20.7561 46.636H22.8006V54.1912H21.2387V52.126L21.3943 48.5611L19.3551 54.1912H18.2861L16.252 48.5663L16.4077 52.126V54.1912H14.851V46.636H16.8851Z" fill="#999999"/>
<path d="M28.7057 50.9169H25.7168V52.9406H29.2246V54.1912H24.1601V46.636H29.2142V47.8969H25.7168V49.6975H28.7057V50.9169Z" fill="#999999"/>
<path d="M34.341 51.5292V54.1912H32.7843V46.636H35.7316C36.299 46.636 36.7971 46.7397 37.2261 46.9473C37.6585 47.1549 37.9906 47.4506 38.2224 47.8346C38.4541 48.2152 38.57 48.6493 38.57 49.1371C38.57 49.8774 38.3158 50.462 37.8072 50.891C37.3022 51.3165 36.6016 51.5292 35.7057 51.5292H34.341ZM34.341 50.2683H35.7316C36.1433 50.2683 36.4564 50.1714 36.6708 49.9777C36.8888 49.784 36.9977 49.5072 36.9977 49.1475C36.9977 48.7773 36.8888 48.4781 36.6708 48.2498C36.4529 48.0214 36.1519 47.9038 35.7679 47.8969H34.341V50.2683Z" fill="#999999"/>
<path d="M44.1897 50.9169H41.2008V52.9406H44.7086V54.1912H39.6441V46.636H44.6983V47.8969H41.2008V49.6975H44.1897V50.9169Z" fill="#999999"/>
<path d="M51.4128 47.8969H49.0985V54.1912H47.5418V47.8969H45.2587V46.636H51.4128V47.8969Z" fill="#999999"/>
<path d="M56.14 52.209C56.14 51.9149 56.0363 51.6901 55.8287 51.5344C55.6212 51.3753 55.2475 51.2092 54.7079 51.0363C54.1682 50.8598 53.741 50.6869 53.4262 50.5174C52.5683 50.0538 52.1393 49.4294 52.1393 48.6441C52.1393 48.2359 52.2535 47.8727 52.4818 47.5544C52.7136 47.2327 53.0439 46.9819 53.4729 46.802C53.9053 46.6221 54.3896 46.5322 54.9258 46.5322C55.4655 46.5322 55.9463 46.6308 56.3684 46.828C56.7904 47.0217 57.1173 47.2967 57.3491 47.653C57.5843 48.0093 57.7019 48.4141 57.7019 48.8672H56.1452C56.1452 48.5213 56.0363 48.2532 55.8183 48.0629C55.6004 47.8692 55.2942 47.7724 54.8999 47.7724C54.5193 47.7724 54.2236 47.8537 54.0126 48.0162C53.8015 48.1754 53.696 48.3864 53.696 48.6493C53.696 48.8949 53.8188 49.1008 54.0644 49.2668C54.3135 49.4328 54.6785 49.5885 55.1593 49.7338C56.0449 50.0002 56.6901 50.3306 57.0948 50.7249C57.4996 51.1193 57.7019 51.6105 57.7019 52.1986C57.7019 52.8524 57.4546 53.3661 56.9599 53.7397C56.4652 54.1099 55.7993 54.295 54.9621 54.295C54.381 54.295 53.8517 54.1895 53.3743 53.9784C52.8969 53.764 52.5319 53.4716 52.2794 53.1015C52.0303 52.7313 51.9058 52.3024 51.9058 51.8146H53.4677C53.4677 52.6483 53.9659 53.0652 54.9621 53.0652C55.3323 53.0652 55.6212 52.9908 55.8287 52.842C56.0363 52.6898 56.14 52.4788 56.14 52.209Z" fill="#999999"/>
<path d="M15.8252 59.4864H14.9811L14.8206 59.9679H14.3087L15.1785 57.6312H15.6246L16.4993 59.9679H15.9873L15.8252 59.4864ZM15.1111 59.0965H15.6952L15.4016 58.2218L15.1111 59.0965Z" fill="#999999"/>
<path d="M17.0369 58.2315L17.0514 58.4321C17.1755 58.2769 17.3418 58.1994 17.5505 58.1994C17.7345 58.1994 17.8714 58.2534 17.9613 58.3614C18.0512 58.4695 18.0972 58.6311 18.0993 58.8461V59.9679H17.6355V58.8573C17.6355 58.7589 17.6141 58.6878 17.5713 58.6439C17.5285 58.599 17.4574 58.5765 17.3579 58.5765C17.2274 58.5765 17.1295 58.6321 17.0642 58.7434V59.9679H16.6004V58.2315H17.0369Z" fill="#999999"/>
<path d="M18.9419 59.9679H18.4765V58.2315H18.9419V59.9679ZM18.4492 57.7821C18.4492 57.7125 18.4722 57.6553 18.5182 57.6104C18.5653 57.5654 18.6289 57.543 18.7092 57.543C18.7883 57.543 18.8515 57.5654 18.8985 57.6104C18.9456 57.6553 18.9692 57.7125 18.9692 57.7821C18.9692 57.8527 18.9451 57.9105 18.8969 57.9554C18.8499 58.0003 18.7873 58.0228 18.7092 58.0228C18.6311 58.0228 18.5679 58.0003 18.5198 57.9554C18.4727 57.9105 18.4492 57.8527 18.4492 57.7821Z" fill="#999999"/>
<path d="M19.7603 58.2315L19.7748 58.4256C19.8978 58.2748 20.0642 58.1994 20.2739 58.1994C20.4975 58.1994 20.651 58.2876 20.7345 58.4642C20.8565 58.2876 21.0303 58.1994 21.2561 58.1994C21.4444 58.1994 21.5845 58.2545 21.6765 58.3647C21.7686 58.4738 21.8146 58.6385 21.8146 58.8589V59.9679H21.3492V58.8606C21.3492 58.7621 21.3299 58.6904 21.2914 58.6455C21.2529 58.5995 21.1849 58.5765 21.0876 58.5765C20.9485 58.5765 20.8522 58.6428 20.7987 58.7755L20.8003 59.9679H20.3365V58.8622C20.3365 58.7616 20.3167 58.6888 20.2771 58.6439C20.2375 58.599 20.1701 58.5765 20.0749 58.5765C19.9433 58.5765 19.8481 58.6311 19.7892 58.7402V59.9679H19.3254V58.2315H19.7603Z" fill="#999999"/>
<path d="M23.1787 59.9679C23.1573 59.9262 23.1418 59.8743 23.1322 59.8122C23.0198 59.9374 22.8738 60 22.694 60C22.5239 60 22.3827 59.9508 22.2703 59.8524C22.1591 59.7539 22.1034 59.6298 22.1034 59.48C22.1034 59.296 22.1714 59.1548 22.3073 59.0563C22.4442 58.9579 22.6416 58.9082 22.8995 58.9071H23.1129V58.8076C23.1129 58.7273 23.092 58.6632 23.0503 58.615C23.0097 58.5669 22.9449 58.5428 22.8561 58.5428C22.778 58.5428 22.7165 58.5615 22.6716 58.599C22.6277 58.6364 22.6058 58.6878 22.6058 58.753H22.142C22.142 58.6525 22.173 58.5594 22.235 58.4738C22.2971 58.3882 22.3848 58.3213 22.4982 58.2732C22.6116 58.224 22.739 58.1994 22.8802 58.1994C23.0942 58.1994 23.2638 58.2534 23.3889 58.3614C23.5152 58.4684 23.5783 58.6193 23.5783 58.814V59.5667C23.5794 59.7315 23.6024 59.8561 23.6473 59.9406V59.9679H23.1787ZM22.7951 59.6453C22.8636 59.6453 22.9267 59.6304 22.9845 59.6004C23.0423 59.5694 23.0851 59.5282 23.1129 59.4768V59.1783H22.9396C22.7074 59.1783 22.5838 59.2586 22.5688 59.419L22.5672 59.4463C22.5672 59.5041 22.5876 59.5517 22.6282 59.5892C22.6689 59.6266 22.7245 59.6453 22.7951 59.6453Z" fill="#999999"/>
<path d="M24.4241 59.9679H23.9587V57.5028H24.4241V59.9679Z" fill="#999999"/>
<path d="M25.6566 59.9679V57.6312H26.3756C26.581 57.6312 26.7645 57.6778 26.926 57.7709C27.0887 57.8629 27.2154 57.9945 27.3064 58.1656C27.3973 58.3358 27.4428 58.5294 27.4428 58.7466V58.8541C27.4428 59.0713 27.3979 59.2644 27.308 59.4335C27.2192 59.6025 27.0935 59.7336 26.9309 59.8267C26.7682 59.9198 26.5847 59.9668 26.3804 59.9679H25.6566ZM26.1381 58.0212V59.5811H26.3708C26.5591 59.5811 26.703 59.5196 26.8025 59.3966C26.902 59.2735 26.9528 59.0975 26.9549 58.8686V58.745C26.9549 58.5075 26.9057 58.3277 26.8073 58.2058C26.7088 58.0827 26.5649 58.0212 26.3756 58.0212H26.1381Z" fill="#999999"/>
<path d="M27.6916 59.0836C27.6916 58.9114 27.7247 58.7578 27.7911 58.623C27.8574 58.4882 27.9526 58.3839 28.0767 58.3101C28.2019 58.2363 28.3469 58.1994 28.5116 58.1994C28.7459 58.1994 28.9369 58.271 29.0846 58.4144C29.2333 58.5578 29.3162 58.7525 29.3333 58.9986L29.3365 59.1173C29.3365 59.3837 29.2622 59.5977 29.1135 59.7593C28.9647 59.9198 28.7652 60 28.5148 60C28.2645 60 28.0644 59.9198 27.9146 59.7593C27.7659 59.5988 27.6916 59.3805 27.6916 59.1045V59.0836ZM28.1554 59.1173C28.1554 59.2821 28.1864 59.4083 28.2484 59.4961C28.3105 59.5827 28.3993 59.6261 28.5148 59.6261C28.6272 59.6261 28.7149 59.5833 28.778 59.4977C28.8412 59.411 28.8727 59.273 28.8727 59.0836C28.8727 58.9221 28.8412 58.7969 28.778 58.7081C28.7149 58.6193 28.6261 58.5749 28.5116 58.5749C28.3982 58.5749 28.3105 58.6193 28.2484 58.7081C28.1864 58.7958 28.1554 58.9322 28.1554 59.1173Z" fill="#999999"/>
<path d="M30.0491 58.2315L30.0635 58.4321C30.1876 58.2769 30.354 58.1994 30.5626 58.1994C30.7467 58.1994 30.8836 58.2534 30.9735 58.3614C31.0634 58.4695 31.1094 58.6311 31.1115 58.8461V59.9679H30.6477V58.8573C30.6477 58.7589 30.6263 58.6878 30.5835 58.6439C30.5407 58.599 30.4696 58.5765 30.3701 58.5765C30.2395 58.5765 30.1416 58.6321 30.0764 58.7434V59.9679H29.6126V58.2315H30.0491Z" fill="#999999"/>
<path d="M32.4708 59.9679C32.4494 59.9262 32.4339 59.8743 32.4243 59.8122C32.3119 59.9374 32.1659 60 31.9862 60C31.816 60 31.6748 59.9508 31.5625 59.8524C31.4512 59.7539 31.3956 59.6298 31.3956 59.48C31.3956 59.296 31.4635 59.1548 31.5994 59.0563C31.7363 58.9579 31.9337 58.9082 32.1916 58.9071H32.405V58.8076C32.405 58.7273 32.3842 58.6632 32.3424 58.615C32.3018 58.5669 32.237 58.5428 32.1482 58.5428C32.0701 58.5428 32.0086 58.5615 31.9637 58.599C31.9198 58.6364 31.8979 58.6878 31.8979 58.753H31.4341C31.4341 58.6525 31.4651 58.5594 31.5272 58.4738C31.5892 58.3882 31.677 58.3213 31.7904 58.2732C31.9038 58.224 32.0311 58.1994 32.1723 58.1994C32.3863 58.1994 32.5559 58.2534 32.6811 58.3614C32.8073 58.4684 32.8704 58.6193 32.8704 58.814V59.5667C32.8715 59.7315 32.8945 59.8561 32.9394 59.9406V59.9679H32.4708ZM32.0873 59.6453C32.1557 59.6453 32.2189 59.6304 32.2766 59.6004C32.3344 59.5694 32.3772 59.5282 32.405 59.4768V59.1783H32.2317C31.9995 59.1783 31.876 59.2586 31.861 59.419L31.8594 59.4463C31.8594 59.5041 31.8797 59.5517 31.9204 59.5892C31.961 59.6266 32.0166 59.6453 32.0873 59.6453Z" fill="#999999"/>
<path d="M33.782 57.8046V58.2315H34.0789V58.5717H33.782V59.4383C33.782 59.5025 33.7943 59.5485 33.8189 59.5763C33.8435 59.6041 33.8906 59.618 33.9601 59.618C34.0115 59.618 34.057 59.6143 34.0965 59.6068V59.9583C34.0056 59.9861 33.912 60 33.8157 60C33.4904 60 33.3246 59.8358 33.3182 59.5073V58.5717H33.0646V58.2315H33.3182V57.8046H33.782Z" fill="#999999"/>
<path d="M34.8267 59.9679H34.3613V58.2315H34.8267V59.9679ZM34.3341 57.7821C34.3341 57.7125 34.3571 57.6553 34.4031 57.6104C34.4501 57.5654 34.5138 57.543 34.594 57.543C34.6732 57.543 34.7363 57.5654 34.7834 57.6104C34.8305 57.6553 34.854 57.7125 34.854 57.7821C34.854 57.8527 34.83 57.9105 34.7818 57.9554C34.7347 58.0003 34.6721 58.0228 34.594 58.0228C34.5159 58.0228 34.4528 58.0003 34.4047 57.9554C34.3576 57.9105 34.3341 57.8527 34.3341 57.7821Z" fill="#999999"/>
<path d="M35.1381 59.0836C35.1381 58.9114 35.1713 58.7578 35.2376 58.623C35.3039 58.4882 35.3991 58.3839 35.5233 58.3101C35.6484 58.2363 35.7934 58.1994 35.9582 58.1994C36.1925 58.1994 36.3835 58.271 36.5311 58.4144C36.6798 58.5578 36.7627 58.7525 36.7799 58.9986L36.7831 59.1173C36.7831 59.3837 36.7087 59.5977 36.56 59.7593C36.4113 59.9198 36.2117 60 35.9614 60C35.711 60 35.511 59.9198 35.3612 59.7593C35.2124 59.5988 35.1381 59.3805 35.1381 59.1045V59.0836ZM35.6019 59.1173C35.6019 59.2821 35.6329 59.4083 35.695 59.4961C35.757 59.5827 35.8458 59.6261 35.9614 59.6261C36.0737 59.6261 36.1615 59.5833 36.2246 59.4977C36.2877 59.411 36.3193 59.273 36.3193 59.0836C36.3193 58.9221 36.2877 58.7969 36.2246 58.7081C36.1615 58.6193 36.0727 58.5749 35.9582 58.5749C35.8448 58.5749 35.757 58.6193 35.695 58.7081C35.6329 58.7958 35.6019 58.9322 35.6019 59.1173Z" fill="#999999"/>
<path d="M37.4956 58.2315L37.5101 58.4321C37.6342 58.2769 37.8005 58.1994 38.0092 58.1994C38.1932 58.1994 38.3302 58.2534 38.42 58.3614C38.5099 58.4695 38.5559 58.6311 38.558 58.8461V59.9679H38.0942V58.8573C38.0942 58.7589 38.0728 58.6878 38.03 58.6439C37.9872 58.599 37.9161 58.5765 37.8166 58.5765C37.6861 58.5765 37.5882 58.6321 37.5229 58.7434V59.9679H37.0591V58.2315H37.4956Z" fill="#999999"/>
<path d="M39.8516 59.4881C39.8516 59.4314 39.8232 59.3869 39.7665 59.3549C39.7109 59.3217 39.621 59.2923 39.4969 59.2666C39.0839 59.1799 38.8774 59.0045 38.8774 58.7402C38.8774 58.5861 38.9411 58.4577 39.0684 58.355C39.1968 58.2512 39.3642 58.1994 39.5707 58.1994C39.7911 58.1994 39.9671 58.2512 40.0987 58.355C40.2314 58.4588 40.2977 58.5936 40.2977 58.7594H39.8339C39.8339 58.6931 39.8125 58.6385 39.7697 58.5957C39.7269 58.5519 39.66 58.53 39.5691 58.53C39.491 58.53 39.4305 58.5476 39.3878 58.5829C39.345 58.6182 39.3236 58.6632 39.3236 58.7177C39.3236 58.7691 39.3476 58.8108 39.3958 58.8429C39.445 58.8739 39.5274 58.9012 39.6429 58.9248C39.7585 58.9472 39.8558 58.9729 39.935 59.0018C40.18 59.0917 40.3025 59.2473 40.3025 59.4688C40.3025 59.6271 40.2346 59.7555 40.0987 59.854C39.9628 59.9513 39.7874 60 39.5723 60C39.4268 60 39.2973 59.9743 39.1839 59.923C39.0716 59.8705 38.9833 59.7994 38.9191 59.7095C38.8549 59.6186 38.8228 59.5207 38.8228 59.4158H39.2626C39.2669 59.4982 39.2973 59.5613 39.354 59.6052C39.4108 59.6491 39.4867 59.671 39.5819 59.671C39.6707 59.671 39.7376 59.6544 39.7825 59.6213C39.8286 59.587 39.8516 59.5426 39.8516 59.4881Z" fill="#999999"/>
</mask>
<g mask="url(#mask0_241_982)">
<rect x="-8.22363" y="-15.7148" width="77.0331" height="82.4254" fill="url(#paint0_linear_241_982)"/>
</g>
<defs>
<linearGradient id="paint0_linear_241_982" x1="30.3583" y1="42.4451" x2="30.3583" y2="42.5222" gradientUnits="userSpaceOnUse">
<stop stop-color="#FBD10D"/>
<stop offset="1" stop-color="white"/>
</linearGradient>
</defs>
</svg>
