<svg width="50" height="58" viewBox="0 0 50 58" fill="none" xmlns="http://www.w3.org/2000/svg">
<path d="M0 8.5C0 4.08172 3.58172 0.5 8 0.5H42C46.4183 0.5 50 4.08172 50 8.5V49.5C50 53.9183 46.4183 57.5 42 57.5H8C3.58172 57.5 0 53.9183 0 49.5V8.5Z" fill="white"/>
<path d="M24.3906 28.7656C24.7188 29.0938 25.2344 29.0938 25.5625 28.7656L30.6719 23.4219C32.1719 21.875 32.0781 19.2969 30.4375 17.8438C28.9844 16.5781 26.8281 16.8125 25.5156 18.2188L25 18.7344L24.4375 18.2188C23.125 16.8125 20.9688 16.5781 19.5625 17.8438C17.875 19.2969 17.7812 21.875 19.2812 23.4219L24.3906 28.7656ZM37.9844 32.4219C37.4219 31.9062 36.5781 31.9531 35.9688 32.4219L31.6562 35.8438C31.1406 36.3125 30.4375 36.5 29.7812 36.5H24.25C23.8281 36.5 23.5 36.1719 23.5 35.75C23.5 35.375 23.8281 35 24.25 35H27.9062C28.6562 35 29.3594 34.5312 29.4531 33.7812C29.5938 32.8438 28.8906 32 28 32H20.5C19.2344 32 17.9688 32.4688 16.9844 33.2656L14.8281 35H12.25C11.8281 35 11.5 35.375 11.5 35.75V40.25C11.5 40.6719 11.8281 41 12.25 41H28.9375C29.6406 41 30.2969 40.8125 30.8125 40.3438L37.9375 34.6719C38.6406 34.1094 38.6875 33.0312 37.9844 32.4219Z" fill="#4D27D9"/>
</svg>
