<svg width="50" height="58" viewBox="0 0 50 58" fill="none" xmlns="http://www.w3.org/2000/svg">
<path d="M0 8.5C0 4.08172 3.58172 0.5 8 0.5H42C46.4183 0.5 50 4.08172 50 8.5V49.5C50 53.9183 46.4183 57.5 42 57.5H8C3.58172 57.5 0 53.9183 0 49.5V8.5Z" fill="white"/>
<path d="M19.5625 27.8281C19.0938 27.1719 18.1562 27.0312 17.5 27.5C16.7969 28.0156 16.7031 28.9531 17.1719 29.6094L18.9531 32C19.1875 32.2812 19.1406 32.7031 18.9062 32.9844L18.2969 33.5938C17.9688 33.875 17.4531 33.875 17.1719 33.5469L13 28.4844V21.5C13 20.7031 12.2969 20 11.5 20C10.6562 20 10 20.7031 10 21.5V31.7656C10 32.2812 10.1406 32.75 10.4688 33.1719L15.3438 39.4531C15.5781 39.7812 15.7656 40.1094 15.8594 40.4844C15.9062 40.8125 16.2344 41 16.5625 41H22.75C23.125 41 23.5 40.6719 23.5 40.25V35C23.5 33.7344 23.0781 32.4688 22.2812 31.4375L19.5625 27.8281ZM38.5 20C37.6562 20 37 20.7031 37 21.5V28.4844L32.7812 33.5469C32.5 33.875 31.9844 33.875 31.6562 33.5938L31.0469 32.9844C30.8125 32.7031 30.7656 32.2812 31 32L32.7812 29.6094C33.2969 28.9531 33.1562 28.0156 32.5 27.5C31.7969 27.0312 30.8594 27.1719 30.3906 27.8281L27.6719 31.4375C26.9219 32.4688 26.5 33.7344 26.5 35V40.25C26.5 40.6719 26.8281 41 27.25 41H33.3906C33.7188 41 34.0469 40.8125 34.1406 40.4844C34.2344 40.1094 34.375 39.7812 34.6094 39.4531L39.4844 33.1719C39.8125 32.75 40 32.2812 40 31.7656V21.5C40 20.7031 39.2969 20 38.5 20Z" fill="#4D27D9"/>
</svg>
