<svg width="50" height="58" viewBox="0 0 50 58" fill="none" xmlns="http://www.w3.org/2000/svg">
<path d="M0 8.5C0 4.08172 3.58172 0.5 8 0.5H42C46.4183 0.5 50 4.08172 50 8.5V49.5C50 53.9183 46.4183 57.5 42 57.5H8C3.58172 57.5 0 53.9183 0 49.5V8.5Z" fill="white"/>
<path d="M25 29C28.2812 29 31 26.3281 31 23C31 19.7188 28.2812 17 25 17C21.6719 17 19 19.7188 19 23C19 26.3281 21.6719 29 25 29ZM29.1719 30.5H28.375C27.3438 31.0156 26.2188 31.25 25 31.25C23.7812 31.25 22.6094 31.0156 21.5781 30.5H20.7812C17.3125 30.5 14.5 33.3594 14.5 36.8281V38.75C14.5 40.0156 15.4844 41 16.75 41H33.25C34.4688 41 35.5 40.0156 35.5 38.75V36.8281C35.5 33.3594 32.6406 30.5 29.1719 30.5Z" fill="#4D27D9"/>
</svg>
